<svg id="visual" viewBox="0 0 2000 2000" width="2000" height="2000" xmlns="http://www.w3.org/2000/svg" xmlns:xlink="http://www.w3.org/1999/xlink" version="1.1"><rect x="0" y="0" width="2000" height="2000" fill="#140033"></rect><path d="M0 1246L41.7 1224.2C83.3 1202.3 166.7 1158.7 250 1052C333.3 945.3 416.7 775.7 500 738.5C583.3 701.3 666.7 796.7 750 944.2C833.3 1091.7 916.7 1291.3 1000 1399.5C1083.3 1507.7 1166.7 1524.3 1250 1473.5C1333.3 1422.7 1416.7 1304.3 1500 1142C1583.3 979.7 1666.7 773.3 1750 729.2C1833.3 685 1916.7 803 1958.3 862L2000 921L2000 2001L1958.3 2001C1916.7 2001 1833.3 2001 1750 2001C1666.7 2001 1583.3 2001 1500 2001C1416.7 2001 1333.3 2001 1250 2001C1166.7 2001 1083.3 2001 1000 2001C916.7 2001 833.3 2001 750 2001C666.7 2001 583.3 2001 500 2001C416.7 2001 333.3 2001 250 2001C166.7 2001 83.3 2001 41.7 2001L0 2001Z" fill="#aa00ff" stroke-linecap="round" stroke-linejoin="miter"></path></svg>